<svg width="32" height="32" viewBox="0 0 32 32" fill="none" xmlns="http://www.w3.org/2000/svg">
<rect width="32" height="32" rx="16" fill="#F7FFE8"/>
<path d="M14.49 6.23L9.5 8.09999C8.35 8.52999 7.41 9.88998 7.41 11.12V18.55C7.41 19.73 8.19001 21.28 9.14001 21.99L13.44 25.2C14.85 26.26 17.17 26.26 18.58 25.2L22.88 21.99C23.83 21.28 24.61 19.73 24.61 18.55V11.12C24.61 9.88998 23.67 8.52999 22.52 8.09999L17.53 6.23C16.68 5.92 15.32 5.92 14.49 6.23Z" stroke="#87AA4B" stroke-width="1.5" stroke-linecap="round" stroke-linejoin="round"/>
<path d="M16 14.92C15.96 14.92 15.91 14.92 15.87 14.92C14.93 14.89 14.18 14.11 14.18 13.16C14.18 12.19 14.97 11.4 15.94 11.4C16.91 11.4 17.7 12.19 17.7 13.16C17.69 14.12 16.94 14.89 16 14.92Z" stroke="#87AA4B" stroke-width="1.5" stroke-linecap="round" stroke-linejoin="round"/>
<path d="M14.01 17.72C13.05 18.36 13.05 19.41 14.01 20.05C15.1 20.78 16.89 20.78 17.98 20.05C18.94 19.41 18.94 18.36 17.98 17.72C16.9 16.99 15.11 16.99 14.01 17.72Z" stroke="#87AA4B" stroke-width="1.5" stroke-linecap="round" stroke-linejoin="round"/>
</svg>
